<?xml version="1.0" encoding="UTF-8" standalone="no"?>
<svg
   width="1800"
   height="800"
   id="svg5794"
   version="1.1"
   viewBox="0 0 1800 800"
   sodipodi:docname="logo2.svg"
   inkscape:version="1.4 (86a8ad7, 2024-10-11)"
   xmlns:inkscape="http://www.inkscape.org/namespaces/inkscape"
   xmlns:sodipodi="http://sodipodi.sourceforge.net/DTD/sodipodi-0.dtd"
   xmlns="http://www.w3.org/2000/svg"
   xmlns:svg="http://www.w3.org/2000/svg"
   xmlns:rdf="http://www.w3.org/1999/02/22-rdf-syntax-ns#"
   xmlns:cc="http://creativecommons.org/ns#"
   xmlns:dc="http://purl.org/dc/elements/1.1/">
  <sodipodi:namedview
     id="namedview1"
     pagecolor="#505050"
     bordercolor="#ffffff"
     borderopacity="1"
     inkscape:showpageshadow="0"
     inkscape:pageopacity="0"
     inkscape:pagecheckerboard="1"
     inkscape:deskcolor="#505050"
     inkscape:zoom="0.45"
     inkscape:cx="922.22222"
     inkscape:cy="385.55556"
     inkscape:window-width="1920"
     inkscape:window-height="991"
     inkscape:window-x="-9"
     inkscape:window-y="-9"
     inkscape:window-maximized="1"
     inkscape:current-layer="svg5794" />
  <defs
     id="defs5796">
    <inkscape:path-effect
       effect="simplify"
       id="path-effect13"
       is_visible="true"
       lpeversion="1.3"
       threshold="17,241379"
       steps="1"
       smooth_angles="360"
       helper_size="0"
       simplify_individual_paths="false"
       simplify_just_coalesce="false" />
    <rect
       x="144.89004"
       y="182.14748"
       width="6.2095731"
       height="14.489004"
       id="rect2" />
    <clipPath
       id="clipPath4210"
       clipPathUnits="userSpaceOnUse">
      <rect
         y="-34.72"
         x="924.38"
         height="914.08"
         width="1096.9"
         id="rect4212"
         fill="#f00" />
    </clipPath>
  </defs>
  <metadata
     id="metadata5799">
    <rdf:RDF>
      <cc:Work
         rdf:about="">
        <dc:format>
          image/svg+xml
        </dc:format>
        <dc:type
           rdf:resource="http://purl.org/dc/dcmitype/StillImage" />
      </cc:Work>
    </rdf:RDF>
  </metadata>
  <g
     id="g106"
     transform="matrix(0.94190154,0,0,0.94185872,45.378793,26.132804)">
    <path
       style="fill:#f4eed7;stroke-width:0.969076"
       id="path78"
       d="m 84.097679,447.99767 c 9.712636,-1.56594 19.343571,-3.57047 29.083811,-4.96986 15.83192,-1.79544 31.89381,-1.74794 47.6421,0.9867 3.54685,0.61588 7.05471,1.48216 10.58207,2.22325 23.54459,5.81551 45.79883,16.34809 67.57263,27.62164 22.29196,11.97011 44.20418,24.8963 65.27837,39.34901 4.42741,3.03633 8.78073,6.20377 13.1711,9.30565 26.47257,19.06753 51.69327,40.17153 76.49564,61.79926 19.6507,17.32482 38.76858,35.38588 56.92579,54.61566 12.45844,13.09243 24.14471,27.00411 35.21729,41.53801 4.97219,5.64947 9.38468,13.1135 15.625,17.23821 0.75494,0.49899 1.59502,0.81867 2.39253,1.228 8.28001,2.42002 12.84948,-4.71462 17.61252,-11.0412 5.9387,-8.51071 11.28558,-17.50278 17.10947,-26.10805 4.49787,-6.64596 6.45031,-9.19483 11.23668,-15.75564 13.87067,-18.83371 29.77198,-35.54501 46.21913,-51.54544 21.34199,-20.86581 44.06049,-39.84531 67.02743,-58.42275 25.88613,-20.68042 52.78504,-39.71612 80.12002,-57.93043 16.41838,-10.67239 33.10518,-20.87631 50.26471,-30.01473 9.56909,-5.0961 13.66127,-6.97803 23.27757,-11.65146 13.2959,-6.37134 26.85368,-12.12822 40.75619,-16.66251 4.80847,-1.56827 11.8121,-3.50359 16.73131,-4.89676 10.27522,-2.79942 20.66591,-5.00071 31.16945,-6.40092 3.10594,-0.51069 1.66318,-0.24879 4.33107,-0.76711 0,0 -0.61657,-38.5849 -0.61657,-38.5849 v 0 c -2.53606,0.517 -1.16165,0.25585 -4.12638,0.76375 -10.65518,1.39522 -21.19795,3.59132 -31.62379,6.41021 -4.55878,1.28397 -12.51591,3.48369 -16.91884,4.9025 -14.03026,4.52115 -27.71888,10.27674 -41.13329,16.67747 -9.59081,4.63413 -13.89762,6.61029 -23.44178,11.65939 -17.25744,9.12963 -34.03566,19.34553 -50.54561,30.03033 -27.44038,18.21357 -54.43283,37.27106 -80.42987,57.95055 -23.05807,18.59681 -45.89377,37.5606 -67.33312,58.44562 -16.63169,16.01976 -32.72091,32.74764 -46.8087,51.59806 -4.20968,5.70419 -7.41734,9.94129 -11.41678,15.77394 -5.85149,8.53361 -11.19583,17.47699 -16.94695,26.09147 -2.03093,2.90391 -6.3292,10.17977 -9.78747,11.32986 -1.29739,0.43145 -1.80875,0.0214 -3.05644,-0.39767 -6.76931,-4.50775 -11.38474,-12.06731 -16.6821,-18.3663 -11.21926,-14.52566 -23.04144,-28.43551 -35.58456,-41.57122 -18.30497,-19.19596 -37.50367,-37.30024 -57.25365,-54.64162 -24.91731,-21.64083 -50.23654,-42.77942 -76.84109,-61.82287 -4.42123,-3.10377 -8.8058,-6.27286 -13.26372,-9.31132 -21.20216,-14.45115 -43.22544,-27.40114 -65.63944,-39.36856 -22.05931,-11.3194 -44.5961,-21.89693 -68.43942,-27.65147 -3.60148,-0.74234 -7.18379,-1.61026 -10.80445,-2.22704 -16.0399,-2.73242 -32.38759,-2.78995 -48.50933,-0.98638 -9.71082,1.38085 -19.314931,3.32743 -28.985061,4.96863 z" />
    <path
       style="fill:#f4eed7;stroke-width:0.969076"
       id="path81"
       d="m 508.07642,653.25439 c -4.20537,-5.79608 -4.69936,-11.88826 -5.41952,-19.05977 -1.07017,-15.14668 -1.64331,-30.32716 -2.37255,-45.49666 -1.06283,-21.63776 -3.21612,-43.17929 -5.98617,-64.62244 -2.77221,-20.16196 -6.73839,-40.07639 -9.9078,-60.15916 -2.40344,-16.3534 -3.85466,-32.85103 -4.6442,-49.39026 -0.16084,-25.17158 -0.0621,13.92004 0.0559,20.87826 0.0515,3.03732 0.1338,-6.07394 0.21334,-9.11051 0.22809,-8.70698 0.50643,-17.41158 0.825,-26.11495 0.60823,-12.78731 1.62183,-25.64518 4.0267,-38.19369 0.45359,-2.36682 1.02437,-4.70408 1.53656,-7.05613 2.42449,-9.62573 5.22085,-19.23833 9.31563,-28.17456 2.5973,-5.6682 4.16995,-8.04047 7.29053,-13.36392 8.94524,-14.6575 21.13994,-26.10523 33.67266,-36.80968 11.71865,-9.89881 25.05079,-16.78293 38.59427,-22.95691 14.93931,-6.5866 30.35155,-11.68915 45.66238,-17.07296 17.42106,-5.78699 34.69918,-12.04884 51.79151,-18.93713 9.9908,-4.33551 20.06684,-8.5155 29.77444,-13.6063 4.09411,-2.147 8.63877,-4.85685 12.65555,-7.20077 11.11093,-6.63762 21.63876,-14.35869 31.81059,-22.62329 9.27113,-7.67047 18.6232,-15.22415 27.59865,-23.32034 7.29636,-6.68638 14.20369,-13.83269 20.60268,-21.56497 4.03444,-5.07355 7.7275,-10.46105 11.40174,-15.8559 1.69104,-2.40653 3.19007,-4.99032 4.9667,-7.32233 0.36585,-0.48788 0.0488,0.34642 0.45553,1.1244 0.36856,0.70479 0.93963,1.26258 1.30503,1.96938 1.24195,2.40239 2.15043,4.99897 3.22351,7.4996 4.53881,11.99511 7.51533,24.59156 11.14536,36.93544 4.75661,15.35967 10.25835,30.40784 16.33872,45.17553 5.63867,13.47383 12.62601,26.16352 19.42769,38.93338 7.01686,13.21068 12.8755,27.10493 18.06773,41.29946 4.80407,15.13583 7.91714,30.84963 11.26001,46.44003 2.41243,11.07943 4.95302,22.12789 6.81757,33.34087 1.15478,7.17863 2.49233,14.30435 4.19186,21.3502 1.05748,5.26254 2.3466,10.46666 3.09715,15.79906 1.46311,13.16655 0.32372,29.423 0.0923,-33.67494 0,-0.41583 0.0883,0.82863 0.0791,1.24434 -0.0235,1.11261 -0.17181,1.33854 -0.48866,2.38481 -0.14912,0.3346 -0.29832,0.66919 -0.44753,1.0038 0,0 2.89674,38.45679 2.89674,38.45679 v 0 c 0.42127,-0.36343 0.84254,-0.72688 1.26381,-1.09031 8.64152,-12.81608 3.71528,-31.21178 1.42381,-46.54282 -0.99262,-5.30743 -2.17714,-10.57067 -3.33662,-15.83533 -1.53901,-7.06079 -2.78674,-14.18218 -3.99604,-21.32068 -2.07219,-11.18495 -4.53548,-22.26831 -6.96434,-33.36312 -3.40583,-15.65443 -6.54324,-31.46463 -11.80084,-46.51589 -5.38976,-14.20919 -11.41014,-28.12325 -18.55797,-41.35998 -6.76649,-12.70114 -13.58351,-25.41045 -19.04748,-38.88713 -5.9282,-14.76517 -11.3644,-29.77373 -15.9508,-45.12348 -3.56435,-12.45215 -6.65933,-25.140996 -11.67625,-37.005433 -1.8548,-3.900768 -3.82257,-9.302575 -7.97405,-10.866038 -1.20904,-0.455327 -1.91342,-0.143762 -3.05325,0.114954 -2.70659,1.642969 -4.13678,4.791975 -6.00289,7.412782 -3.5227,5.413009 -7.25243,10.662532 -11.06895,15.823084 -6.16786,7.773627 -12.92165,14.880141 -20.08557,21.521061 -8.83988,8.19279 -18.2078,15.63753 -27.41575,23.30686 -9.9849,8.26446 -20.35354,15.94582 -31.28842,22.59074 -3.09443,1.82204 -9.32326,5.53135 -12.4327,7.18954 -9.60725,5.12326 -19.62434,9.24253 -29.52324,13.59554 -17.03422,6.91318 -34.26333,13.17663 -51.6441,18.93175 -15.39344,5.42007 -30.89554,10.52571 -45.93948,17.08364 -13.8271,6.19789 -27.46314,13.10474 -39.51048,23.00969 -12.86121,10.7495 -25.39034,22.26764 -34.8238,36.91427 -2.9189,4.74648 -5.30122,8.37171 -7.7951,13.42327 -4.39131,8.89497 -7.33916,18.59277 -9.973,28.26432 -0.5793,2.36215 -1.22498,4.70547 -1.73792,7.08644 -2.69762,12.52234 -3.7729,25.46563 -4.54322,38.27757 -1.23316,30.18397 -1.87852,60.43098 -1.04232,90.63888 0.94469,16.56573 2.50362,33.09148 5.04905,49.45606 3.25172,20.04911 7.16309,39.96614 9.7813,60.13919 2.63531,21.43619 4.71869,42.9571 5.68861,64.57337 0.70794,15.19167 1.2155,30.4159 2.67829,45.54704 0.58771,3.77175 0.7315,5.69095 1.83614,9.23281 1.16276,3.72816 3.18708,6.94309 5.31689,10.05473 z" />
    <path
       style="fill:#f4eed7;stroke-width:0.969076"
       id="path82"
       d="m 92.749503,428.41479 c 2.989269,-13.2574 6.03775,-26.49756 8.928607,-39.78204 4.70097,-21.93509 8.82957,-44.01232 13.29621,-66.00644 6.02239,-29.17816 11.42858,-58.50092 16.12057,-87.97759 3.48014,-21.64053 5.21055,-43.53618 6.86072,-65.41908 0.98691,-11.40044 1.89457,-22.83297 3.4944,-34.15306 0.0883,-0.0583 0.60393,-4.22478 0.68415,-4.29301 0.1013,-0.0861 0.16291,0.21924 0.2567,0.31533 0.45416,0.46531 0.93288,0.90053 1.38569,1.36745 0.73356,0.7564 1.44858,1.53465 2.17286,2.30199 8.56438,10.24276 16.68031,20.92926 25.10172,31.319 10.03404,12.39156 20.54924,24.43219 32.78324,34.19004 2.56398,2.04505 5.26579,3.86835 7.89867,5.80251 13.98358,9.50264 29.3866,16.20352 45.03719,21.49111 3.54626,1.19811 7.13786,2.22427 10.70679,3.33641 24.12352,6.65973 48.77284,10.64692 73.32633,14.79605 13.80469,2.41541 27.67299,4.62731 41.29932,8.13341 6.15662,1.58411 9.25315,2.67884 15.24046,4.61189 12.10869,4.09898 23.19412,10.85009 34.25,17.53649 6.33893,3.72862 12.59621,7.77388 18.08721,12.94317 3.40693,3.2073 4.14194,4.33457 7.14731,7.98777 6.92394,8.38243 12.64171,17.80733 17.23123,27.94882 1.80002,4.0298 3.12359,8.28326 4.55827,12.48045 0,0 4.16816,-38.31265 4.16816,-38.31265 v 0 c -1.50766,-4.24467 -3.01384,-8.49781 -4.95338,-12.53086 -5.00649,-10.14635 -10.99042,-19.64267 -18.18423,-28.04957 -3.34671,-3.77832 -3.9764,-4.71274 -7.70967,-8.03348 -5.73573,-5.10189 -12.14571,-9.15375 -18.61474,-12.97681 -11.27623,-6.78442 -22.64409,-13.48982 -35.00261,-17.56903 -6.24531,-1.98826 -9.06711,-2.9835 -15.5002,-4.61893 -13.69601,-3.48183 -27.62222,-5.71913 -41.49134,-8.13722 -24.41171,-4.1332 -48.92485,-8.08811 -72.89465,-14.78582 -3.51689,-1.11042 -7.05648,-2.13587 -10.5507,-3.33126 -15.35854,-5.25415 -30.46354,-11.9046 -44.09476,-21.44337 -2.54539,-1.92805 -5.15659,-3.75322 -7.6362,-5.78414 -11.99351,-9.82325 -22.26198,-21.87867 -32.18767,-34.14016 -3.88114,-4.80606 -6.36101,-7.84162 -10.14233,-12.65643 -4.99936,-6.3658 -9.81701,-12.95524 -15.41413,-18.701692 -0.90447,-0.779948 -1.74291,-1.664672 -2.71338,-2.339841 -2.43282,-1.692563 -6.79388,-3.087551 -8.4667,0.576126 -0.33403,0.731565 -0.42843,1.569857 -0.64264,2.354784 -1.84112,11.307363 -2.72002,22.777653 -3.7826,34.199633 -1.64653,21.8521 -3.16254,43.74032 -6.55325,65.3695 -4.58056,29.47767 -9.95513,58.78755 -15.95004,87.95144 -4.49126,21.98279 -8.62604,44.05126 -13.25247,65.99988 -2.843139,13.2926 -5.890734,26.53075 -8.894365,39.77696 z" />
    <path
       style="fill:#f4eed7;stroke-width:0.969076"
       id="path86"
       d="m 511.86793,704.90677 c 13.34483,-5.74987 26.48993,-12.04913 39.78546,-17.94028 19.87738,-8.53454 39.95738,-16.53587 60.46151,-23.03075 14.85178,-4.70447 19.99873,-5.85506 35.02694,-9.80193 27.92375,-6.6707 56.47783,-10.49357 85.07461,-9.86772 5.30803,0.11616 10.60578,0.56826 15.90867,0.8524 29.18332,2.39096 57.92413,8.788 86.36341,16.19255 19.31037,5.21035 38.1101,12.52082 57.48153,17.4732 3.22088,0.82346 6.47333,1.48714 9.70995,2.23072 9.89725,1.91856 19.98639,3.05153 30.00258,1.62395 4.8399,-0.68984 6.41621,-1.30355 11.06281,-2.62837 10.0868,-2.98989 18.20044,-9.26721 26.17496,-16.47527 1.13105,-1.10428 2.262,-2.20855 3.39296,-3.31283 0,0 -2.53546,-38.48821 -2.53546,-38.48821 v 0 c -1.08983,1.10101 -2.17957,2.20203 -3.26923,3.30304 -7.39639,6.98988 -15.14545,13.45026 -24.65803,16.3951 -4.37862,1.31179 -5.90494,1.93228 -10.47381,2.61707 -9.6743,1.45 -19.42695,0.25043 -28.98248,-1.6173 -3.18837,-0.74235 -6.39195,-1.40765 -9.56493,-2.22706 -19.37898,-5.00457 -38.19958,-12.31403 -57.54186,-17.4748 -28.65043,-7.41967 -57.60119,-13.8301 -86.99567,-16.20231 -5.36785,-0.28428 -10.7306,-0.73655 -16.10354,-0.85283 -28.85395,-0.62444 -57.66793,3.18911 -85.85226,9.87808 -15.0664,3.93663 -20.3497,5.11715 -35.24404,9.80825 -20.60389,6.48939 -40.78206,14.49366 -60.75611,23.04178 -13.28417,5.85852 -26.41305,12.13383 -39.71512,17.93739 z" />
    <path
       style="fill:#f4eed7;stroke-width:0.969076"
       id="path87"
       d="m 57.258042,640.44226 c -5.778811,12.37801 -1.22321,42.38071 -1.184172,44.07679 0.02364,1.02623 2.095814,5.17791 2.492485,5.82977 0.679061,1.11591 1.509188,2.1089 2.263777,3.16336 7.177995,8.30088 17.05782,12.07904 26.603957,15.7858 13.198041,4.75887 27.077951,6.21915 40.839851,7.38834 11.3761,0.58156 22.80685,0.40691 34.16289,-0.58712 7.82577,-0.685 10.69242,-1.25077 18.46868,-2.43864 20.94372,-3.27179 41.55488,-8.5114 62.15774,-13.71917 22.7556,-5.91167 45.67466,-11.0317 68.68306,-15.56905 19.91201,-3.57599 39.86657,-7.02289 60.02063,-8.39025 4.4285,-0.30045 8.86601,-0.40569 13.299,-0.60854 16.59621,-0.28288 33.24046,0.45416 49.61657,3.61212 9.23149,1.78019 11.16433,2.51414 20.03744,5.008 10.41935,2.89545 20.19037,7.9469 30.3537,11.67703 7.09929,2.60557 7.69181,2.50859 15.0413,4.24122 6.98708,1.41795 14.06349,2.06621 21.1334,2.69517 0,0 0.28002,-38.58971 0.28002,-38.58971 v 0 c -6.91755,-0.62406 -13.8426,-1.2627 -20.67433,-2.6877 -2.46605,-0.60061 -4.95558,-1.09282 -7.39815,-1.80181 -12.8973,-3.74369 -24.88538,-10.67727 -37.88059,-14.11347 -8.96673,-2.47875 -11.06541,-3.24839 -20.3808,-5.01551 -16.59717,-3.14846 -33.45763,-3.90262 -50.27118,-3.61599 -4.47925,0.20318 -8.96299,0.30818 -13.43776,0.60949 -20.26386,1.36452 -40.32778,4.80899 -60.34928,8.39492 -23.0658,4.52868 -46.04105,9.65408 -68.85172,15.57279 -20.50611,5.1863 -41.01348,10.43956 -61.85757,13.71315 -7.59366,1.17491 -10.54871,1.75897 -18.18811,2.43561 -11.20049,0.99207 -22.47708,1.16726 -33.69779,0.58765 -13.46124,-1.15695 -27.04603,-2.58335 -39.925046,-7.36718 -8.911752,-3.53868 -18.344435,-7.10348 -24.434242,-15.62839 -1.343985,-2.54039 -1.941549,-3.21004 -2.55303,-6.02109 -0.192522,-0.88506 -0.293097,-3.62024 -0.308569,-2.70991 -1.04248,61.35311 -0.449111,45.29335 -0.220577,32.42701 z" />
    <path
       style="fill:#f4eed7;stroke-width:0.969076"
       id="path89"
       d="m 546.39571,670.31085 c 0.74343,-0.36963 1.50654,-0.69392 2.23029,-1.1089 4.52162,-2.5926 8.65714,-6.02812 12.75703,-9.34079 4.53865,-3.66722 9.03493,-7.39868 13.5646,-11.07958 19.29843,-16.03324 39.30067,-30.94593 59.52492,-45.48778 21.76315,-15.37045 43.7986,-30.26079 66.19218,-44.4717 17.90568,-11.18433 36.53534,-20.80622 55.49577,-29.55033 15.39808,-7.02895 31.01442,-13.44307 46.83144,-19.20733 12.78773,-4.4387 25.68746,-8.4438 38.65541,-12.17597 8.90724,-2.54791 17.78737,-5.23428 26.80146,-7.28442 5.54631,-1.1914 11.01646,-2.78339 16.44666,-4.50269 4.59138,-1.54296 9.30198,-2.45693 14.01867,-3.35804 4.532,-0.86511 9.08417,-1.57483 13.64904,-2.18673 0.42319,-0.0542 0.84629,-0.10838 1.26938,-0.16258 0,0 -0.19902,-19.29614 -0.19902,-19.29614 v 0 c -0.42623,0.0542 -0.85246,0.10847 -1.27869,0.1627 -4.59461,0.61229 -9.17669,1.32051 -13.73834,2.18816 -4.77634,0.9198 -9.5551,1.80464 -14.20814,3.3628 -5.37933,1.73362 -10.81062,3.30163 -16.30909,4.49902 -9.04737,2.03558 -17.95704,4.72752 -26.89247,7.28672 -13.00459,3.7336 -25.93904,7.74581 -38.76558,12.17944 -15.86179,5.76329 -31.52336,12.17454 -46.96395,19.21255 -19.03405,8.742 -37.73353,18.37353 -55.7143,29.56141 -22.4313,14.20177 -44.49013,29.11025 -66.28878,44.47756 -20.25587,14.54528 -40.30325,29.44093 -59.62401,45.49444 -7.59502,6.16296 -15.01544,12.75033 -22.93494,18.40446 -2.4202,1.7279 -2.80403,1.86304 -5.07886,3.09631 z" />
    <path
       style="fill:#f4eed7;stroke-width:0.969076"
       id="path90"
       d="m 566.76349,659.95766 c 7.05866,-4.23139 13.75669,-9.1333 20.39668,-14.11511 9.1813,-6.92899 19.2765,-12.09637 29.16641,-17.6128 10.29113,-5.97293 21.04366,-10.87555 31.79848,-15.70578 14.0988,-6.30544 28.03151,-13.05367 42.14328,-19.32284 15.11008,-6.76461 30.52208,-12.64709 46.02033,-18.20726 16.3197,-5.89884 33.09785,-9.9661 49.90388,-13.71804 16.06256,-3.252 32.1771,-6.19936 48.30507,-9.02511 15.46164,-2.74022 30.96873,-5.15632 46.52631,-7.11542 12.64461,-1.83162 25.36798,-2.58241 38.10866,-2.77131 3.99926,-0.0335 7.99887,0.006 11.99692,0.11713 0.68977,0.0223 0.37988,0.0112 0.92958,0.0322 0,0 0.0591,-19.2973 0.0591,-19.2973 v 0 c -0.56048,-0.0208 -0.24537,-0.0102 -0.94523,-0.0322 -4.02021,-0.11054 -8.04191,-0.15089 -12.06334,-0.11718 -12.79807,0.18891 -25.57962,0.93423 -38.28152,2.77252 -15.58322,1.95576 -31.11553,4.37409 -46.60226,7.11656 -16.15214,2.82643 -32.28946,5.78285 -48.37768,9.02655 -16.8708,3.75618 -33.71523,7.82378 -50.10201,13.72365 -15.53782,5.55903 -30.98911,11.444 -46.13822,18.21178 -14.12126,6.24973 -28.05077,13.01247 -42.15007,19.32315 -10.79972,4.8358 -21.60473,9.7323 -31.94128,15.7125 -9.94486,5.56119 -20.12158,10.71142 -29.39134,17.62607 -6.59483,4.97664 -13.23668,9.90234 -20.26371,14.10687 z" />
    <path
       style="fill:#f4eed7;stroke-width:0.969076"
       id="path91"
       d="m 81.157517,524.94858 c 4.33403,-3.85789 10.124034,-4.44375 15.416583,-5.34218 12.11022,-1.60912 24.30305,-2.18258 36.48523,-2.61458 18.89129,-0.56117 37.53098,3.06015 55.98739,7.0739 22.8813,5.05906 45.65227,10.59508 68.21602,17.18501 25.06153,7.52718 49.45951,17.4526 73.70846,27.6781 13.51522,5.88046 26.67768,12.71108 39.65994,19.9056 6.55723,3.6339 17.80304,10.08452 24.28322,14.21742 3.41556,2.17837 6.72507,4.55542 10.08761,6.83312 15.83368,11.32538 28.37349,26.96127 40.33021,42.88231 4.34976,5.875 8.23271,12.13966 12.51413,18.07236 0,0 1.56351,-19.21922 1.56351,-19.21922 v 0 c -4.23225,-5.98794 -8.175,-12.22093 -12.56036,-18.07692 -12.11679,-15.99598 -24.85876,-31.6343 -40.89826,-42.92715 -3.39093,-2.27935 -6.73103,-4.6546 -10.17281,-6.83806 -20.59798,-13.06738 -42.2436,-24.15923 -64.17647,-34.13417 -24.30835,-10.23604 -48.76819,-20.16366 -73.89244,-27.68443 -22.60224,-6.58393 -45.40995,-12.12413 -68.32704,-17.18779 -18.58683,-4.02615 -37.35772,-7.64162 -56.37858,-7.07739 -12.25123,0.43335 -24.51176,1.01454 -36.692062,2.61666 -5.708213,0.95752 -11.611708,1.71897 -16.518392,5.3995 z" />
    <path
       style="fill:#f4eed7;stroke-width:0.969076"
       id="path92"
       d="m 75.641321,596.12172 c 9.504514,2.56507 19.342213,1.53599 28.948849,0.42322 3.01778,-0.44565 6.03888,-0.86441 9.05335,-1.33695 7.2621,-1.13838 14.50042,-2.45886 21.76285,-3.59464 14.04468,-2.19645 28.11946,-3.91986 42.22596,-5.537 16.13003,-1.54621 32.30183,-3.12967 48.50742,-3.19642 9.93281,-0.0409 24.62101,0.65581 34.55609,1.62275 5.4998,0.53526 10.97075,1.38804 16.45613,2.08205 22.08809,3.5989 43.80218,9.62747 64.87974,17.76884 12.54918,4.84721 16.29792,6.8006 28.40101,12.38135 4.2149,2.07337 8.45466,4.08556 12.6447,6.22012 3.96626,2.02055 7.96029,3.98769 11.82194,6.24411 13.46377,7.86707 25.72898,17.89553 37.95947,27.86086 6.74198,5.82428 3.64416,3.0704 9.3208,8.22358 0,0 1.18688,-19.2524 1.18688,-19.2524 v 0 c -5.73468,-5.15606 -2.60715,-2.40041 -9.40892,-8.23002 -8.70614,-7.06846 -17.39984,-14.21405 -26.61168,-20.46683 -9.74552,-6.61502 -13.22044,-8.41766 -23.54434,-13.65997 -4.20399,-2.13472 -8.45719,-4.14798 -12.68579,-6.22196 -12.13689,-5.572 -15.95558,-7.55008 -28.5374,-12.38671 -21.19561,-8.1479 -43.02662,-14.18046 -65.22957,-17.77714 -5.51501,-0.6943 -11.01569,-1.5471 -16.54502,-2.08293 -9.99796,-0.96885 -24.7251,-1.66409 -34.71872,-1.62301 -16.24691,0.0667 -32.46013,1.64904 -48.63153,3.19736 -14.13249,1.61741 -28.23386,3.33964 -42.30446,5.53807 -4.06181,0.63463 -17.27779,2.89289 -21.73608,3.59422 -2.99836,0.47169 -6.00322,0.89089 -9.00485,1.33631 -9.403435,1.10408 -19.042289,2.14743 -28.340944,-0.41847 z" />
    <path
       style="fill:#f4eed7;stroke-width:0.969076"
       id="path94"
       d="m 74.761836,668.85881 c -2.080821,1.08675 -4.444989,2.2363 -6.756276,1.46354 -0.797389,-0.64927 -0.362444,-1.65498 -0.336293,-2.69386 0.0126,-0.49888 0.02419,-1.99597 0.02649,-1.4969 0.07157,15.77481 -0.02216,23.38596 0.06485,15.67385 -0.581448,-5.57873 2.902108,-20.60762 -2.770451,-27.0973 -1.087581,-1.48988 -2.605976,-2.46973 -3.924509,-3.6842 -1.004132,-1.27603 -1.640715,-2.59197 -1.948236,-4.24738 -0.760797,-6.52433 -0.457187,-15.53561 -0.0586,16.04497 0.0055,0.4028 0.01895,-0.80829 0.0814,-1.20513 0.213946,-1.3604 0.521659,-2.0539 0.970954,-3.37273 1.92202,-4.44992 4.519533,-8.49089 7.014907,-12.56003 2.561465,-3.94332 5.270968,-7.76275 7.897363,-11.65207 2.216249,-3.18266 4.503951,-6.30281 6.749671,-9.45961 2.045436,-2.89026 3.972239,-5.88018 6.025208,-8.76354 2.01726,-3.02118 4.264066,-5.83559 6.407906,-8.74263 0.816416,-1.09299 1.599148,-2.21748 2.47256,-3.25542 0,0 -1.354149,-19.23879 -1.354149,-19.23879 v 0 c -0.994368,1.01429 -1.825426,2.13188 -2.694379,3.27625 -2.015209,3.00882 -4.454142,5.64986 -6.382288,8.74005 -2.106366,2.8509 -4.020558,5.85956 -6.061376,8.76717 -2.182344,3.21677 -4.54435,6.27937 -6.767746,9.46147 -2.659694,3.88374 -5.305838,7.77799 -7.96935,11.65964 -2.588563,4.09113 -5.134702,8.24399 -7.347962,12.59945 -3.65036,8.17198 -3.620548,18.09524 -1.156669,26.8471 0.679429,1.68212 1.650898,3.18348 2.946591,4.35458 1.279026,1.10149 2.601192,2.15616 3.541672,3.6507 3.394249,6.06737 1.185892,23.5245 1.651698,-11.19005 -0.290264,8.33234 -0.184786,4.70213 -0.02042,22.46876 0.01904,2.05499 0.701183,3.72699 2.53007,4.40767 2.767848,0.61908 5.45832,-0.11888 7.973212,-1.47889 z" />
    <path
       style="fill:#f4eed7;stroke-width:0.969076"
       id="path95"
       d="m 79.314226,587.06136 c 3.085735,-4.4406 5.768554,-9.19095 8.339336,-14.01104 2.902844,-5.57852 5.475843,-11.35227 8.357842,-16.9435 2.519703,-4.36874 4.643596,-8.97693 6.719606,-13.61547 1.66838,-4.03696 2.97088,-8.24432 4.34792,-12.41043 1.20349,-3.59957 2.6982,-7.06269 4.02126,-10.60661 0,0 -2.07038,-19.16009 -2.07038,-19.16009 v 0 c -1.22524,3.59992 -2.78947,7.0368 -4.06335,10.61226 -1.3755,4.13211 -2.69868,8.28456 -4.15095,12.38494 -2.113964,4.59022 -4.015932,9.31289 -6.622681,13.60386 -2.914478,5.57061 -5.532219,11.30885 -8.345746,16.94209 -2.503,4.79362 -5.140599,9.48076 -8.054049,13.98058 z" />
    <path
       style="fill:#f4eed7;stroke-width:0.969076"
       id="path96"
       d="m 80.291655,513.30397 c 2.550776,-5.50913 5.324291,-10.87645 8.217946,-16.1707 3.929632,-7.01518 7.545347,-14.23647 11.236883,-21.40706 2.771136,-5.96348 5.902106,-11.6596 9.326106,-17.18166 1.99322,-2.82534 3.26071,-5.86813 3.7645,-9.39318 0.15054,-1.21135 0.19898,-2.4323 0.24334,-3.65248 0,0 -2.6893,-19.06516 -2.6893,-19.06516 v 0 c 0.005,1.20811 8.7e-4,2.41638 -0.067,3.62286 -0.28592,3.82833 -0.72817,6.1309 -2.93432,9.28114 -3.42667,5.55804 -6.8034,11.12433 -9.472436,17.19816 -3.656556,7.17876 -7.30041,14.36956 -11.183848,21.40092 -2.930871,5.3091 -5.748851,10.67765 -8.36293,16.18791 z" />
    <path
       style="fill:#f4eed7;stroke-width:0.969076"
       id="path99"
       d="m 965.33003,649.55719 c 0.77281,-1.99515 1.38589,-4.0501 1.76952,-6.17898 0.44092,-2.44802 0.74759,-4.93341 1.2692,-7.36251 0.3052,-1.21659 0.58674,-2.44025 0.86968,-3.66339 0.0435,-0.26517 0.0852,-0.316 0.26754,-0.49741 -0.29963,-6.5691 -0.59926,-13.13821 -0.89897,-19.70731 -2.8077,-2.16049 -5.16822,-4.98516 -7.68281,-7.55167 -2.72553,-3.16144 -5.68783,-6.10754 -8.21085,-9.48005 -1.45772,-1.94847 -3.23506,-4.74615 -4.55896,-6.77353 -4.67929,-8.17851 -8.15094,-17.11203 -11.98787,-25.79428 -2.36477,-5.72131 -4.72198,-11.40044 -7.99374,-16.55624 -2.24852,-3.66687 -4.88797,-7.04145 -6.79374,-10.95097 -0.47309,-1.33411 -0.94001,-2.44989 -1.15956,-3.87811 -0.11078,-0.72056 -0.10226,-1.45753 -0.15338,-2.18629 0.0435,5.58675 0.0861,11.1735 0.12938,16.76027 0,0 -2.71605,-19.06048 -2.71605,-19.06048 v 0 c 0.0565,10.16697 -1.97438,18.91806 2.08958,27.55715 2.13114,3.78765 4.65773,7.27027 6.91521,10.9646 3.08872,5.20884 5.31759,10.91901 7.74697,16.52755 3.85127,8.74391 7.36014,17.74781 12.29541,25.82944 3.92901,5.86867 8.23694,11.34095 13.10526,16.28498 2.44373,2.49857 4.91719,5.00836 7.32858,7.5183 -0.053,-6.1885 -0.1639,-12.37672 -0.16104,-18.5655 9e-5,-0.12325 0.39119,0.42269 0.13008,0.43306 -0.25389,1.22402 -0.54109,2.43927 -0.82089,3.65623 -0.67612,2.4316 -0.93115,4.9231 -1.47354,7.39361 -0.18703,2.10979 -0.5997,4.16968 -1.36964,6.12067 z" />
    <path
       style="fill:#f4eed7;stroke-width:0.969076"
       id="path100"
       d="m 930.09158,519.22617 c -1.4591,-3.6677 -4.00734,-6.53509 -6.27734,-9.5874 -3.26288,-3.79638 -6.26257,-7.85941 -9.47354,-11.70489 -2.73927,-2.91189 -5.15735,-6.12729 -7.47952,-9.44518 -2.30113,-3.08572 -4.29306,-6.44415 -5.614,-10.17723 -1.35451,-3.72943 -2.44547,-7.57739 -3.55234,-11.407 0,0 -2.17862,19.1453 -2.17862,19.1453 v 0 c 1.14244,3.84713 2.23827,7.72586 3.72493,11.43024 1.61658,3.68743 3.68172,7.07608 6.04746,10.22699 2.36825,3.32065 4.92919,6.44074 7.60716,9.45752 3.13715,3.89225 6.24508,7.8139 9.39198,11.69713 2.20878,2.95082 4.54626,5.8556 5.73921,9.52539 z" />
    <path
       style="fill:#f4eed7;stroke-width:0.969076"
       id="path101"
       d="m 917.63297,456.68988 c -2.69475,-4.52213 -5.33829,-9.08963 -7.73985,-13.81925 -3.03333,-5.62709 -5.56618,-11.52817 -7.97747,-17.50368 -2.43173,-5.97892 -5.45046,-11.58398 -8.51449,-17.17709 -1.52023,-2.7773 -2.66666,-5.88236 -3.04933,-9.12776 -0.0892,-0.7551 -0.11477,-3.04284 -0.1099,-2.28132 0.0356,5.59877 0.13529,11.19681 0.20294,16.79523 0.39145,-2.99693 0.16059,-1.52449 0.68699,-4.4184 0,0 -2.35217,-19.11998 -2.35217,-19.11998 v 0 c -0.6096,2.91584 -0.30971,1.43207 -0.89784,4.45179 -0.11556,14.09938 -2.31583,21.94377 3.74006,32.89654 3.03594,5.55856 5.9112,11.20782 8.30337,17.15153 2.44998,5.99384 5.12039,11.85974 8.1479,17.52454 2.46563,4.6604 5.18412,9.14802 7.63881,13.8071 z" />
  </g>
  <text
     xml:space="preserve"
     style="font-style:normal;font-variant:normal;font-weight:normal;font-stretch:normal;font-size:256.159px;font-family:Arial;-inkscape-font-specification:'Arial, Normal';font-variant-ligatures:normal;font-variant-caps:normal;font-variant-numeric:normal;font-variant-east-asian:normal;text-align:start;writing-mode:lr-tb;direction:ltr;text-anchor:start;fill:#f4eed7;stroke-width:1.2808"
     x="1127.2686"
     y="291.25876"
     id="text105"
     transform="scale(0.90223025,1.1083645)"><tspan
       sodipodi:role="line"
       id="tspan105"
       x="1127.2686"
       y="291.25876"
       style="font-style:normal;font-variant:normal;font-weight:normal;font-stretch:normal;font-size:256.159px;font-family:Arial;-inkscape-font-specification:'Arial, Normal';font-variant-ligatures:normal;font-variant-caps:normal;font-variant-numeric:normal;font-variant-east-asian:normal;stroke-width:1.2808">BOOK</tspan><tspan
       sodipodi:role="line"
       x="1127.2686"
       y="611.45746"
       id="tspan106"
       style="font-style:normal;font-variant:normal;font-weight:normal;font-stretch:normal;font-size:256.159px;font-family:Arial;-inkscape-font-specification:'Arial, Normal';font-variant-ligatures:normal;font-variant-caps:normal;font-variant-numeric:normal;font-variant-east-asian:normal;stroke-width:1.2808">NOOK</tspan></text>
</svg>
