<?xml version="1.0" encoding="UTF-8" standalone="no"?><!DOCTYPE svg PUBLIC "-//W3C//DTD SVG 1.1//EN" "http://www.w3.org/Graphics/SVG/1.1/DTD/svg11.dtd"><svg width="100%" height="100%" viewBox="0 0 7500 3334" version="1.1" xmlns="http://www.w3.org/2000/svg" xmlns:xlink="http://www.w3.org/1999/xlink" xml:space="preserve" xmlns:serif="http://www.serif.com/" style="fill-rule:evenodd;clip-rule:evenodd;stroke-linejoin:round;stroke-miterlimit:2;"><g><path d="M4204.21,799.099l210.571,0c92.909,0 162.761,13.903 209.554,41.707c46.794,27.805 70.191,75.108 70.191,141.907c-0,28.822 -5.51,54.678 -16.531,77.566c-11.02,22.888 -27.042,41.792 -48.065,56.712c-21.023,14.919 -46.963,25.261 -77.82,31.026l0,5.086c32.552,5.086 61.375,14.411 86.467,27.974c25.092,13.564 44.759,32.553 59.001,56.967c14.241,24.414 21.362,55.44 21.362,93.078c-0,45.777 -10.597,84.432 -31.789,115.967c-21.193,31.535 -51.117,55.355 -89.773,71.462c-38.655,16.106 -84.432,24.16 -137.329,24.16l-255.839,-0l0,-743.612Zm86.466,318.909l142.416,-0c64.765,-0 109.609,-10.681 134.532,-32.044c24.922,-21.362 37.384,-52.558 37.384,-93.587c-0,-42.385 -14.835,-72.903 -44.505,-91.553c-29.67,-18.649 -76.888,-27.974 -141.653,-27.974l-128.174,-0l0,245.158Zm0,72.733l0,278.219l154.623,-0c66.121,-0 112.915,-12.97 140.381,-38.91c27.466,-25.94 41.198,-60.95 41.198,-105.031c0,-28.144 -6.188,-52.219 -18.564,-72.225c-12.377,-20.006 -32.383,-35.35 -60.018,-46.031c-27.636,-10.681 -64.511,-16.022 -110.627,-16.022l-146.993,0Z" style="fill:#f7f6f3;fill-rule:nonzero;"/><path d="M5636.64,1169.89c0,57.305 -7.29,109.439 -21.871,156.402c-14.58,46.963 -36.197,87.314 -64.85,121.053c-28.652,33.739 -64.171,59.764 -106.557,78.074c-42.385,18.311 -91.553,27.466 -147.502,27.466c-57.644,0 -107.913,-9.155 -150.807,-27.466c-42.894,-18.31 -78.498,-44.42 -106.812,-78.328c-28.313,-33.908 -49.506,-74.429 -63.578,-121.562c-14.072,-47.132 -21.108,-99.351 -21.108,-156.657c-0,-75.954 12.546,-142.584 37.638,-199.89c25.093,-57.305 63.155,-101.895 114.187,-133.768c51.032,-31.874 115.034,-47.811 192.006,-47.811c73.582,-0 135.549,15.767 185.903,47.302c50.354,31.535 88.501,75.87 114.441,133.006c25.94,57.135 38.91,124.528 38.91,202.179Zm-592.041,-0c0,63.069 8.986,117.662 26.957,163.777c17.972,46.116 45.522,81.72 82.652,106.812c37.13,25.092 84.347,37.638 141.652,37.638c57.645,0 104.862,-12.546 141.653,-37.638c36.791,-25.092 64.002,-60.696 81.634,-106.812c17.633,-46.115 26.449,-100.708 26.449,-163.777c-0,-95.961 -20.091,-170.984 -60.272,-225.067c-40.182,-54.084 -102.828,-81.126 -187.938,-81.126c-57.644,-0 -105.116,12.376 -142.415,37.129c-37.299,24.753 -65.019,59.933 -83.16,105.54c-18.141,45.607 -27.212,100.115 -27.212,163.524Z" style="fill:#f7f6f3;fill-rule:nonzero;"/><path d="M6519.8,1169.89c0,57.305 -7.29,109.439 -21.87,156.402c-14.581,46.963 -36.198,87.314 -64.85,121.053c-28.653,33.739 -64.172,59.764 -106.558,78.074c-42.385,18.311 -91.552,27.466 -147.501,27.466c-57.644,0 -107.914,-9.155 -150.808,-27.466c-42.894,-18.31 -78.498,-44.42 -106.811,-78.328c-28.314,-33.908 -49.507,-74.429 -63.579,-121.562c-14.072,-47.132 -21.108,-99.351 -21.108,-156.657c0,-75.954 12.546,-142.584 37.639,-199.89c25.092,-57.305 63.154,-101.895 114.186,-133.768c51.032,-31.874 115.035,-47.811 192.007,-47.811c73.581,-0 135.549,15.767 185.903,47.302c50.354,31.535 88.501,75.87 114.441,133.006c25.939,57.135 38.909,124.528 38.909,202.179Zm-592.041,-0c0,63.069 8.986,117.662 26.958,163.777c17.971,46.116 45.522,81.72 82.651,106.812c37.13,25.092 84.348,37.638 141.653,37.638c57.644,0 104.862,-12.546 141.652,-37.638c36.791,-25.092 64.002,-60.696 81.635,-106.812c17.632,-46.115 26.448,-100.708 26.448,-163.777c0,-95.961 -20.09,-170.984 -60.272,-225.067c-40.181,-54.084 -102.827,-81.126 -187.937,-81.126c-57.645,-0 -105.116,12.376 -142.416,37.129c-37.299,24.753 -65.019,59.933 -83.16,105.54c-18.141,45.607 -27.212,100.115 -27.212,163.524Z" style="fill:#f7f6f3;fill-rule:nonzero;"/><path d="M7262.86,1542.71l-102.234,-0l-268.046,-361.634l-79.346,71.208l0,290.426l-86.466,-0l-0,-743.612l86.466,0l0,370.789c19.328,-22.041 39.164,-43.997 59.509,-65.867c20.345,-21.871 40.521,-43.997 60.527,-66.376l217.183,-238.546l101.217,0l-296.02,322.469l307.21,421.143Z" style="fill:#f7f6f3;fill-rule:nonzero;"/><path d="M4785.57,2534.38l-99.691,0l-405.375,-624.593l-4.069,0c1.017,16.615 2.204,35.519 3.56,56.712c1.357,21.193 2.459,43.742 3.306,67.647c0.848,23.906 1.272,48.235 1.272,72.988l-0,427.246l-80.363,0l0,-743.611l99.182,-0l403.849,622.558l3.561,0c-0.678,-11.868 -1.526,-28.737 -2.543,-50.608c-1.018,-21.871 -1.95,-45.437 -2.798,-70.699c-0.847,-25.262 -1.271,-48.743 -1.271,-70.445l-0,-430.806l81.38,-0l-0,743.611Z" style="fill:#f7f6f3;fill-rule:nonzero;"/><path d="M5633.45,2161.55c-0,57.306 -7.29,109.44 -21.871,156.403c-14.581,46.963 -36.197,87.314 -64.85,121.053c-28.652,33.739 -64.172,59.764 -106.557,78.074c-42.386,18.311 -91.553,27.466 -147.502,27.466c-57.644,-0 -107.913,-9.155 -150.807,-27.466c-42.895,-18.31 -78.498,-44.42 -106.812,-78.328c-28.313,-33.909 -49.506,-74.429 -63.578,-121.562c-14.072,-47.133 -21.108,-99.352 -21.108,-156.657c-0,-75.955 12.546,-142.585 37.638,-199.89c25.092,-57.305 63.155,-101.895 114.187,-133.769c51.032,-31.874 115.034,-47.811 192.006,-47.811c73.581,0 135.549,15.768 185.903,47.303c50.354,31.534 88.501,75.87 114.441,133.005c25.94,57.136 38.91,124.529 38.91,202.179Zm-592.041,0c-0,63.07 8.986,117.663 26.957,163.778c17.972,46.115 45.522,81.719 82.652,106.812c37.13,25.092 84.347,37.638 141.652,37.638c57.645,-0 104.862,-12.546 141.653,-37.638c36.79,-25.093 64.002,-60.697 81.634,-106.812c17.633,-46.115 26.449,-100.708 26.449,-163.778c-0,-95.96 -20.091,-170.983 -60.272,-225.067c-40.182,-54.084 -102.828,-81.126 -187.938,-81.126c-57.644,0 -105.116,12.377 -142.415,37.13c-37.299,24.753 -65.02,59.933 -83.161,105.54c-18.141,45.607 -27.211,100.115 -27.211,163.523Z" style="fill:#f7f6f3;fill-rule:nonzero;"/><path d="M6516.61,2161.55c0,57.306 -7.29,109.44 -21.871,156.403c-14.58,46.963 -36.197,87.314 -64.849,121.053c-28.653,33.739 -64.172,59.764 -106.558,78.074c-42.385,18.311 -91.552,27.466 -147.501,27.466c-57.645,-0 -107.914,-9.155 -150.808,-27.466c-42.894,-18.31 -78.498,-44.42 -106.812,-78.328c-28.313,-33.909 -49.506,-74.429 -63.578,-121.562c-14.072,-47.133 -21.108,-99.352 -21.108,-156.657c0,-75.955 12.546,-142.585 37.639,-199.89c25.092,-57.305 63.154,-101.895 114.186,-133.769c51.032,-31.874 115.034,-47.811 192.007,-47.811c73.581,0 135.548,15.768 185.902,47.303c50.354,31.534 88.501,75.87 114.441,133.005c25.94,57.136 38.91,124.529 38.91,202.179Zm-592.041,0c0,63.07 8.986,117.663 26.957,163.778c17.972,46.115 45.523,81.719 82.652,106.812c37.13,25.092 84.347,37.638 141.653,37.638c57.644,-0 104.861,-12.546 141.652,-37.638c36.791,-25.093 64.002,-60.697 81.635,-106.812c17.632,-46.115 26.448,-100.708 26.448,-163.778c0,-95.96 -20.091,-170.983 -60.272,-225.067c-40.182,-54.084 -102.827,-81.126 -187.937,-81.126c-57.645,0 -105.117,12.377 -142.416,37.13c-37.299,24.753 -65.019,59.933 -83.16,105.54c-18.141,45.607 -27.212,100.115 -27.212,163.523Z" style="fill:#f7f6f3;fill-rule:nonzero;"/><path d="M7259.67,2534.38l-102.234,0l-268.046,-361.633l-79.346,71.208l-0,290.425l-86.466,0l-0,-743.611l86.466,-0l-0,370.788c19.328,-22.04 39.164,-43.996 59.509,-65.867c20.345,-21.871 40.521,-43.996 60.527,-66.376l217.183,-238.545l101.217,-0l-296.021,322.469l307.211,421.142Z" style="fill:#f7f6f3;fill-rule:nonzero;"/></g><g id="g106"><path id="path78" d="M357.274,1791.18c38.355,-4.429 76.468,-10.591 114.902,-14.361c62.388,-4.25 125.352,-1.235 186.614,12.261c13.797,3.039 27.398,7.053 41.096,10.58c91.286,26.947 176.681,72.159 260.063,120.192c85.29,50.856 168.923,105.392 249.001,165.766c16.823,12.683 33.333,25.868 50,38.802c100.431,79.417 195.594,166.597 289.026,255.757c73.991,71.382 145.764,145.558 213.564,224.146c46.539,53.523 89.906,110.121 130.758,169.051c18.499,23.025 34.484,53.064 58.223,70.334c2.872,2.09 6.11,3.491 9.164,5.236c32.037,10.946 51.209,-16.22 70.997,-40.184c24.783,-32.32 47.33,-66.631 71.679,-99.341c18.805,-25.263 26.909,-34.912 46.83,-59.79c57.7,-71.394 122.987,-134.109 190.288,-193.94c87.35,-78.044 179.764,-148.451 273.081,-217.237c105.133,-76.517 213.947,-146.407 324.326,-213c66.25,-38.948 133.47,-76.013 202.356,-108.817c38.415,-18.293 54.79,-24.951 93.316,-41.579c53.25,-22.636 107.419,-42.817 162.725,-58.145c19.128,-5.301 46.928,-11.655 66.46,-16.25c40.778,-9.165 71.608,-16.757 115.411,-25.148c12.902,-2.472 27.157,-8.602 37.708,-10.165l-8.293,-137.915c-10.034,1.581 -4.599,0.799 -16.312,2.268c-42.021,3.593 -83.742,10.345 -125.115,19.56c-18.099,4.231 -49.684,11.453 -67.196,16.24c-55.804,15.253 -110.486,35.406 -164.206,58.137c-38.419,16.479 -55.652,23.467 -93.961,41.581c-69.268,32.752 -136.849,69.848 -203.46,108.829c-110.792,66.571 -219.977,136.531 -325.544,213.024c-93.678,68.846 -186.549,139.17 -274.284,217.273c-68.028,59.875 -134.055,122.621 -192.608,194.042c-17.51,21.621 -30.832,37.668 -47.54,59.83c-24.445,32.425 -46.973,66.545 -71.039,99.305c-8.474,11.027 -26.607,38.795 -40.369,42.694c-5.162,1.463 -7.095,-0.235 -11.913,-2.097c-25.746,-18.865 -42.509,-49.315 -62.169,-74.943c-41.428,-58.924 -85.328,-115.539 -132.191,-169.247c-68.386,-78.481 -140.468,-152.84 -214.846,-224.305c-93.88,-89.232 -189.424,-176.565 -290.376,-255.91c-16.787,-12.947 -33.419,-26.144 -50.362,-38.841c-80.58,-60.39 -164.645,-115.04 -250.414,-165.906c-84.492,-48.263 -170.988,-93.701 -263.455,-120.462c-13.989,-3.545 -27.881,-7.578 -41.968,-10.634c-62.405,-13.538 -126.488,-16.643 -190.013,-12.412c-38.316,3.703 -76.313,9.642 -114.515,14.373l-5.439,151.348Z" style="fill:#f7f6f3;fill-rule:nonzero;"/><path id="path81" d="M1990.86,2706.68c-15.46,-23.617 -22.75,-69.007 -24.302,-97.439c-1.509,-59.97 -2.056,-135.854 -2.225,-195.854c-0.33,-85.589 -4.952,-170.99 -12.01,-256.112c-7.293,-80.065 -19.312,-159.363 -28.177,-239.186c-6.523,-64.968 -9.287,-130.338 -9.449,-195.755c3.833,-99.378 -2.712,54.93 -3.483,82.414c-0.337,11.997 1.601,-23.95 2.452,-35.921c0.41,-5.779 0.826,-11.558 1.248,-17.336c2.082,-28.541 4.295,-57.07 6.617,-85.591c4.652,-50.363 10.907,-100.933 22.56,-150.037c2.199,-9.261 4.851,-18.386 7.276,-27.579c11.213,-37.564 23.881,-75.011 41.52,-109.56c11.188,-21.914 17.774,-31 30.953,-51.462c37.67,-56.275 87.511,-99.31 138.546,-139.351c47.7,-37.005 101.191,-61.828 155.385,-83.81c59.739,-23.365 121.07,-40.789 182.053,-59.341c69.328,-19.772 138.179,-41.443 206.414,-65.619c39.939,-15.352 80.184,-30.075 119.147,-48.458c16.432,-7.752 34.731,-17.647 50.895,-26.191c44.739,-24.24 87.384,-52.86 128.73,-83.688c37.708,-28.641 75.714,-56.807 112.339,-87.18c29.792,-25.105 58.141,-52.094 84.6,-81.485c16.717,-19.314 32.152,-39.928 47.514,-60.573c7.057,-9.201 13.392,-19.134 20.771,-28.026c1.521,-1.861 0.13,1.376 1.587,4.518c1.32,2.847 3.46,5.149 4.767,8.003c4.443,9.701 7.544,20.109 11.308,30.168c15.668,48.143 25.104,98.384 37.147,147.743c15.925,61.461 34.827,121.823 56.047,181.18c19.718,54.173 44.862,105.489 69.265,157.088c25.168,53.377 45.673,109.248 63.513,166.187c16.151,60.585 25.569,123.154 35.911,185.276c7.493,44.154 15.495,88.209 20.817,132.793c3.254,28.537 7.234,56.897 12.648,85.005c3.213,20.957 -0.39,52.552 1.607,73.731c1.609,24.703 25.251,0.41 25.251,0.41c-2.924,-21.47 14.422,-100.319 8.157,-161.232c-2.951,-21.123 -6.662,-42.105 -10.274,-63.088c-4.782,-28.139 -8.411,-56.466 -11.886,-84.854c-6.141,-44.511 -13.833,-88.689 -21.388,-132.907c-10.577,-62.386 -20.074,-125.34 -38.018,-185.671c-18.612,-57.032 -39.748,-113.009 -65.425,-166.512c-24.276,-51.322 -48.75,-102.685 -67.782,-156.838c-20.624,-59.321 -39.276,-119.515 -54.535,-180.907c-11.767,-49.775 -21.651,-100.401 -39.216,-148.112c-6.581,-15.723 -13.338,-37.39 -29.337,-44.292c-4.659,-2.01 -7.476,-0.904 -11.991,-0.084c-10.903,6.008 -17.068,18.185 -24.849,28.2c-14.772,20.744 -30.325,40.806 -46.204,60.502c-25.56,29.595 -53.3,56.454 -82.564,81.403c-36.111,30.778 -74.16,58.512 -111.621,87.159c-40.612,30.86 -82.626,59.351 -126.676,83.652c-12.455,6.646 -37.534,20.189 -50.019,26.186c-38.575,18.528 -78.579,33.022 -118.161,48.459c-68.011,24.285 -136.671,45.971 -205.835,65.624c-61.313,18.681 -122.996,36.101 -183.141,59.335c-55.31,22.026 -109.997,46.885 -158.987,83.856c-52.33,40.161 -103.495,83.415 -143.077,139.562c-12.286,18.219 -22.269,32.108 -32.942,51.607c-18.795,34.333 -32.072,72.09 -44.113,109.799c-2.69,9.221 -5.637,18.356 -8.071,27.663c-12.797,48.949 -39.142,224.402 -44.434,274.834c-10.187,118.915 -6.181,91.411 -8.259,210.785c0.766,65.549 11.881,153.263 18.959,218.3c9.193,79.705 20.996,159.004 27.684,239.085c6.53,85.071 5.924,171.37 5.893,256.857c0.082,60.085 4.33,119.271 7.382,179.249c1.636,14.99 1.859,22.59 5.562,36.764c3.897,14.92 11.264,27.965 19.062,40.622l26.864,-113.968Z" style="fill:#f7f6f3;fill-rule:nonzero;"/><path id="path82" d="M368.904,1782.26c14.055,-51.448 54.079,-169.149 67.753,-220.721c22.295,-85.167 42.37,-170.993 63.757,-256.433c28.751,-113.331 55.112,-227.337 78.699,-342.073c17.457,-84.227 28.098,-169.764 38.422,-255.264c5.878,-44.521 11.45,-89.182 19.716,-133.28c0.357,-0.213 3.112,-16.456 3.439,-16.71c0.412,-0.32 0.6,0.888 0.951,1.282c1.698,1.904 3.499,3.694 5.192,5.605c2.742,3.094 5.409,6.271 8.113,9.407c31.774,41.665 61.711,84.991 92.898,127.207c37.157,50.348 76.263,99.405 122.509,139.815c9.692,8.47 19.964,16.094 29.945,24.14c53.151,39.718 112.36,68.702 172.789,92.189c13.693,5.322 27.593,9.977 41.39,14.966c93.406,30.359 189.345,50.332 284.879,70.924c53.698,11.901 107.681,23.016 160.487,39.162c23.859,7.295 35.807,12.132 58.94,20.765c46.752,18.203 89.025,46.623 131.193,74.785c24.196,15.734 48.016,32.696 68.633,53.929c12.793,13.174 15.476,17.723 26.615,32.575c25.67,34.082 46.427,72.039 62.635,112.607c6.347,16.116 10.787,33.025 15.672,49.732l35.15,-136.775c-5.163,-16.907 -22.378,-46.54 -29.272,-62.693c-17.842,-40.66 -39.63,-78.944 -66.353,-113.17c-12.456,-15.403 -14.76,-19.177 -28.812,-32.853c-21.589,-21.012 -46.006,-38.027 -70.696,-54.154c-43.014,-28.585 -86.403,-56.876 -134.137,-75.045c-24.136,-8.895 -35.024,-13.294 -59.957,-20.839c-53.084,-16.063 -107.289,-27.287 -161.239,-39.21c-94.982,-20.504 -190.392,-40.328 -283.189,-70.808c-13.593,-4.973 -27.29,-9.617 -40.779,-14.919c-59.289,-23.304 -117.339,-52.037 -169.102,-91.835c-9.64,-8.007 -19.556,-15.623 -28.92,-24.022c-45.292,-40.624 -83.427,-89.696 -120.182,-139.515c-14.37,-19.525 -23.558,-31.863 -37.535,-51.405c-18.48,-25.838 -38.044,-51.005 -57.139,-76.035c-2.946,-3.861 -5.437,-5.884 -8.146,-9.651c-5.081,-7.064 -28.173,-13.301 -35.376,0.767c-1.439,2.81 -1.957,6.079 -2.935,9.119c-9.21,44.006 -14.676,88.82 -20.854,133.412c-10.305,85.38 -20.104,170.925 -37.208,255.124c-23.151,114.759 -49.385,228.72 -78.026,342c-21.481,85.391 -41.579,171.181 -63.584,256.415c-13.488,51.612 -78.259,162.375 -92.368,213.777l36.032,157.706Z" style="fill:#f7f6f3;fill-rule:nonzero;"/><path id="path86" d="M1990.39,2862.6c53.333,-20.191 104.743,-31.434 157.907,-52.188c79.435,-29.958 159.571,-57.79 241.104,-79.641c59.058,-15.827 79.44,-19.431 139.055,-32.258c110.654,-21.233 223.277,-31.19 335.284,-23.699c20.791,1.39 41.482,4.096 62.222,6.144c113.996,14.514 225.552,44.657 335.748,78.695c74.791,23.829 147.21,55.801 222.286,78.629c12.483,3.796 25.117,6.971 37.676,10.456c38.466,9.265 77.822,15.484 117.343,11.652c19.097,-1.852 25.385,-3.981 43.836,-8.356c40.074,-9.945 72.99,-33.126 105.525,-59.98c4.629,-4.13 18.761,-11.428 23.39,-15.558l-12.665,-148.17c-4.467,4.125 -8.933,8.249 -13.399,12.374c-30.23,26.1 -61.749,50.063 -99.563,59.932c-17.399,4.372 -23.492,6.536 -41.525,8.415c-38.185,3.981 -76.211,-2.44 -113.345,-11.445c-12.37,-3.472 -24.813,-6.645 -37.109,-10.416c-75.096,-23.034 -147.597,-55.006 -222.522,-78.646c-111.021,-34.135 -223.397,-64.367 -338.224,-78.845c-20.996,-2.06 -41.941,-4.778 -62.986,-6.18c-113.016,-7.531 -226.657,2.344 -338.335,23.603c-59.764,12.779 -80.686,16.477 -139.907,32.244c-81.924,21.812 -162.445,49.638 -242.261,79.632c-53.115,20.628 -106.931,30.543 -160.106,50.952l0.571,152.654Z" style="fill:#f7f6f3;fill-rule:nonzero;"/><path id="path87" d="M218.147,2540.92c-24.837,47.51 -12.261,165.937 -12.407,172.593c-0.088,4.027 7.305,20.669 8.745,23.294c2.466,4.495 5.546,8.534 8.319,12.801c26.68,33.808 64.749,50.36 101.523,66.574c50.907,20.982 105.068,29.152 158.817,36.16c44.499,4.284 89.346,5.612 134.044,3.716c30.802,-1.307 42.141,-3.02 72.838,-6.307c82.689,-9.138 164.421,-26.049 246.115,-42.836c90.257,-19.168 181.016,-35.204 272.023,-48.939c78.698,-10.512 157.54,-20.511 236.797,-22.321c17.416,-0.398 34.832,-0.029 52.248,-0.043c65.117,1.814 130.243,7.636 193.892,22.901c35.88,8.606 43.328,11.824 77.677,23.164c40.341,13.187 77.76,34.712 116.949,51.126c27.375,11.465 21.716,8.707 48.325,21.752c41.932,20.558 43.636,16.765 87.331,-3.036l12.845,-136.39c-27.011,-3.665 -54.049,-7.389 -80.583,-14.179c-9.562,-2.789 -19.236,-5.157 -28.688,-8.367c-49.906,-16.949 -95.685,-46.243 -146.03,-62.004c-34.718,-11.297 -42.811,-14.684 -79.022,-23.253c-64.517,-15.267 -130.487,-21.194 -196.458,-23.032c-17.597,0.007 -35.195,-0.371 -52.792,0.022c-79.687,1.78 -158.957,11.75 -238.086,22.281c-91.23,13.692 -182.211,29.738 -272.685,48.924c-81.311,16.721 -162.638,33.703 -244.937,42.865c-29.979,3.269 -41.667,5.038 -71.738,6.345c-44.088,1.917 -88.33,0.617 -132.22,-3.632c-52.573,-6.907 -105.583,-14.892 -155.234,-35.916c-34.316,-15.443 -70.67,-31.08 -93.045,-65.574c-4.821,-10.196 -7.046,-12.927 -8.949,-24.055c-0.598,-3.504 -15.614,-34.634 -15.614,-34.634Z" style="fill:#f7f6f3;fill-rule:nonzero;"/><path id="path89" d="M2130.62,2744.19c2.979,-1.318 6.028,-2.455 8.939,-3.955c18.184,-9.367 35.003,-22.108 51.661,-34.373c18.44,-13.577 36.726,-27.414 55.134,-41.047c78.486,-59.458 159.534,-114.399 241.388,-167.847c88.032,-56.426 177.048,-110.921 267.348,-162.69c72.172,-40.693 146.907,-75.134 222.784,-106.075c61.609,-24.844 123.964,-47.239 186.993,-67.051c50.917,-15.15 102.198,-28.579 153.698,-40.926c35.371,-8.42 70.66,-17.388 106.362,-23.838c21.955,-3.693 43.682,-8.971 65.274,-14.755c18.273,-5.24 36.903,-7.994 55.554,-10.696c17.921,-2.593 35.893,-4.573 53.898,-6.168c1.669,-0.138 3.337,-0.276 5.005,-0.414l2.619,-75.685c-1.681,0.138 -3.361,0.275 -5.042,0.413c-18.121,1.591 -36.211,3.56 -54.248,6.158c-18.889,2.765 -37.78,5.392 -56.298,10.681c-21.395,5.849 -42.966,11.04 -64.734,14.766c-35.83,6.386 -71.236,15.37 -106.719,23.83c-51.644,12.346 -103.062,25.797 -154.131,40.92c-63.204,19.8 -125.736,42.177 -187.513,67.049c-76.165,30.92 -151.176,65.386 -223.642,106.08c-90.447,51.726 -179.558,106.288 -267.729,162.695c-81.978,53.456 -163.2,108.322 -241.778,167.856c-30.863,22.824 -61.116,47.342 -93.161,68.114c-9.793,6.347 -11.322,6.81 -20.458,11.244l-1.204,75.714Z" style="fill:#f7f6f3;fill-rule:nonzero;"/><path id="path90" d="M2212.29,2707.19c28.42,-15.346 55.544,-33.384 82.454,-51.745c37.217,-25.548 77.707,-44.028 117.453,-63.913c41.4,-21.603 84.421,-38.93 127.437,-55.972c56.387,-22.237 112.201,-46.238 168.632,-68.331c60.433,-23.858 121.894,-44.205 183.636,-63.274c65.023,-20.251 131.52,-33.241 198.072,-44.99c63.548,-9.92 127.246,-18.636 190.976,-26.873c61.102,-8.019 122.325,-14.76 183.666,-19.7c49.897,-4.953 99.913,-5.656 149.898,-4.152c15.686,0.573 31.36,1.433 47.015,2.573c2.7,0.209 1.487,0.111 3.639,0.29l3.631,-75.644c-2.194,-0.18 -0.96,-0.083 -3.701,-0.293c-15.742,-1.141 -31.502,-2.008 -47.275,-2.584c-50.21,-1.514 -100.453,-0.844 -150.576,4.126c-61.441,4.922 -122.763,11.667 -183.964,19.691c-63.825,8.235 -127.614,16.983 -191.261,26.866c-66.806,11.754 -133.563,24.734 -198.849,44.977c-61.898,19.057 -123.513,39.407 -184.099,63.271c-56.465,22.015 -112.269,46.074 -168.659,68.331c-43.194,17.056 -86.419,34.349 -127.998,55.973c-39.97,20.051 -80.776,38.45 -118.337,63.925c-26.733,18.349 -53.641,36.49 -81.932,51.736l0.142,75.712Z" style="fill:#f7f6f3;fill-rule:nonzero;"/><path id="path91" d="M332.192,2092.35c17.672,-14.361 40.475,-15.638 61.384,-18.228c47.763,-4.175 95.667,-4.275 143.505,-3.823c74.165,1.128 146.607,18.609 218.26,37.595c88.819,23.865 177.12,49.58 264.423,79.39c96.932,33.925 190.839,77.135 284.109,121.495c51.952,25.435 102.354,54.533 151.986,85.025c25.068,15.402 68.023,42.672 92.701,60.017c13.008,9.142 25.564,19.044 38.346,28.566c60.083,47.189 106.493,110.698 150.567,175.222c16.019,23.799 30.139,49.043 45.88,73.057l20.405,-78.043c-15.538,-24.221 -40.789,-46.382 -56.95,-70.112c-44.688,-64.846 -91.89,-128.4 -152.786,-175.499c-12.893,-9.533 -25.57,-19.434 -38.679,-28.6c-78.456,-54.859 -161.367,-102.157 -245.6,-145.127c-93.501,-44.412 -187.651,-87.641 -284.829,-121.552c-87.455,-29.793 -175.9,-55.531 -264.858,-79.42c-72.163,-19.058 -145.12,-36.539 -219.793,-37.678c-48.109,-0.459 -96.28,-0.34 -144.317,3.795c-22.548,2.748 -45.828,4.694 -65.714,18.259l1.96,75.661Z" style="fill:#f7f6f3;fill-rule:nonzero;"/><path id="path92" d="M293.861,2370.41c36.812,11.73 75.563,9.429 113.424,6.759c11.91,-1.216 23.828,-2.325 35.73,-3.647c28.673,-3.184 57.284,-7.086 85.957,-10.259c55.451,-6.137 110.937,-10.414 166.528,-14.269c63.512,-3.221 127.195,-6.58 190.743,-3.987c38.95,1.589 96.415,6.908 135.196,12.449c21.468,3.068 42.768,7.375 64.152,11.062c85.965,18 170.036,45.46 251.24,81.091c48.347,21.213 62.7,29.532 109.169,53.543c16.159,8.871 32.428,17.507 48.479,26.613c15.195,8.62 30.507,17.036 45.25,26.562c51.401,33.215 97.722,74.691 143.917,115.914c25.407,24.022 13.747,12.68 35.095,33.883l8.045,-75.27c-21.575,-21.224 -9.799,-9.87 -35.439,-33.922c-32.889,-29.246 -65.715,-58.791 -100.73,-84.928c-37.043,-27.65 -50.35,-35.329 -89.902,-57.7c-16.107,-9.11 -32.427,-17.752 -48.641,-26.628c-46.603,-23.983 -61.226,-32.41 -109.703,-53.588c-81.665,-35.678 -166.193,-63.174 -252.61,-81.185c-21.5,-3.694 -42.916,-8.006 -64.5,-11.081c-39.027,-5.559 -96.645,-10.879 -135.833,-12.479c-63.71,-2.6 -127.555,0.747 -191.23,3.969c-55.693,3.851 -111.283,8.119 -166.836,14.259c-16.036,1.773 -68.249,8.298 -85.852,10.262c-11.839,1.321 -23.693,2.436 -35.54,3.653c-37.062,2.672 -75.036,5.065 -111.041,-6.633l-5.068,75.557Z" style="fill:#f7f6f3;fill-rule:nonzero;"/><path id="path94" d="M215.992,2543.32c-7.514,38.998 -5.362,59.495 -5.048,57.95c1.079,-5.296 22.429,19.369 23.156,-3.463c8.319,-17.108 11.312,-19.08 21.813,-34.594c10.737,-15.008 22.032,-29.505 33.015,-44.29c9.249,-12.087 18.768,-23.916 28.129,-35.897c8.529,-10.971 16.609,-22.353 25.166,-33.296c8.441,-11.489 17.746,-22.127 26.663,-33.146c3.394,-4.141 28.837,-41.359 32.444,-45.274l-24.096,-42.717c-4.078,3.802 -7.533,8.037 -11.141,12.37c-8.431,11.441 -18.459,21.366 -26.562,33.141c-8.761,10.806 -16.796,22.264 -25.309,33.303c-9.123,12.227 -18.923,23.818 -28.201,35.902c-11.111,14.757 -22.172,29.558 -33.298,44.307c-10.87,15.583 -27.286,39.019 -36.731,55.704Z" style="fill:#f7f6f3;fill-rule:nonzero;"/><path id="path95" d="M296.678,2365.95c12.881,-16.866 37.415,-65.429 48.343,-83.873c12.363,-21.359 23.468,-43.542 35.752,-64.954c10.649,-16.684 19.788,-34.376 28.744,-52.196c7.252,-15.532 13.1,-31.798 19.233,-47.888c5.352,-13.9 11.822,-27.214 17.634,-40.875l-4.742,-75.481c-5.438,13.898 -12.176,27.096 -17.801,40.89c-6.12,15.957 -12.04,32.003 -18.456,47.823c-9.096,17.623 -17.385,35.803 -28.361,52.167c-12.408,21.326 -23.682,43.361 -35.705,64.95c-10.658,18.352 -39.058,60.594 -51.273,77.722l6.632,81.715Z" style="fill:#f7f6f3;fill-rule:nonzero;"/><path id="path96" d="M330.848,2046.54c10.971,-21.149 22.791,-41.703 35.068,-61.949c16.643,-26.811 32.091,-54.484 47.827,-81.946c11.915,-22.892 25.194,-44.671 39.591,-65.717c8.312,-10.726 13.817,-22.432 16.413,-36.163c0.804,-4.722 24.969,-37.22 25.358,-41.996c-0,-0 -31.368,-38.025 -31.847,-33.307c-1.795,14.959 -3.934,23.908 -13.139,35.87c-14.414,21.186 -28.633,42.414 -40.167,65.756c-15.601,27.5 -31.154,55.049 -47.618,81.931c-12.426,20.298 -24.42,40.849 -35.639,61.991l4.153,75.53Z" style="fill:#f7f6f3;fill-rule:nonzero;"/><path id="path99" d="M3758.95,2634.79c9.141,10.226 29.637,58.705 32.11,49.274c1.41,-4.716 2.73,-9.464 4.055,-14.209c0.217,-1.032 4.797,-9.617 5.544,-10.296c-0.018,-25.807 -1.275,-37.676 -1.293,-63.483c-10.627,-8.965 -22.553,-25.999 -31.959,-36.503c-10.129,-12.875 -21.224,-24.947 -30.522,-38.613c-5.372,-7.896 -11.848,-19.177 -16.681,-27.358c-16.905,-32.888 -28.943,-68.523 -42.457,-103.237c-8.263,-22.847 -16.505,-45.527 -28.424,-66.317c-8.169,-14.771 -17.923,-28.466 -24.707,-44.129c-1.619,-5.314 -3.253,-9.77 -3.863,-15.408c-0.307,-2.845 -24.529,-10.823 -25.344,11.088l-14.704,8.064c-1.569,39.869 19.023,36.596 33.434,71.181c7.689,15.224 16.981,29.323 25.181,44.204c11.192,20.965 18.925,43.744 27.462,66.16c13.559,34.959 25.73,70.876 43.656,103.429c14.37,23.7 30.296,45.913 48.512,66.153Z" style="fill:#f7f6f3;fill-rule:nonzero;"/><path id="path100" d="M3672.65,2227.38c-5.075,-14.636 -14.56,-26.327 -22.922,-38.693c-12.124,-15.458 -23.169,-31.916 -35.081,-47.557c-10.227,-11.899 -19.141,-24.93 -27.661,-38.347c-8.478,-12.503 -15.696,-26.02 -20.217,-40.888c-4.654,-14.86 -8.254,-30.138 -11.919,-45.347l-29.338,50.915c3.802,15.283 24.839,54.443 30.015,69.228c5.689,14.741 13.188,28.39 21.909,41.159c8.7,13.436 18.191,26.119 28.159,38.418c11.614,15.812 23.108,31.734 34.762,47.513c8.14,11.957 16.792,23.757 20.823,38.355l11.47,-74.756Z" style="fill:#f7f6f3;fill-rule:nonzero;"/><path id="path101" d="M3616.6,1971.3c-9.769,-18.203 -19.329,-36.575 -27.911,-55.541c-10.901,-22.595 -19.792,-46.176 -28.194,-70.027c-8.48,-23.869 -19.328,-46.375 -30.356,-68.842c-5.471,-11.156 -9.419,-23.532 -10.348,-36.322c-0.216,-2.976 0.086,-11.95 -0.029,-8.964c-0.846,21.956 -1.441,43.921 -2.162,65.881c2.062,-11.68 0.898,-5.948 3.471,-17.201l-5.854,-75.373c-2.903,11.324 -14.93,20.607 -17.768,32.343c-2.937,55.255 0.519,70.573 22.333,114.58c10.923,22.327 21.201,44.981 29.533,68.704c8.55,23.93 17.986,47.398 28.858,70.14c8.846,18.705 18.714,36.777 27.517,55.476l10.91,-74.854Z" style="fill:#f7f6f3;fill-rule:nonzero;"/></g></svg>